<svg xmlns="http://www.w3.org/2000/svg" version="1.1" xmlns:xlink="http://www.w3.org/1999/xlink" xmlns:svgjs="http://svgjs.com/svgjs" width="45" height="45" x="0" y="0" viewBox="0 0 481.825 481.825" style="enable-background:new 0 0 512 512" xml:space="preserve" class=""><g><path d="M240.212 183.725c18 0 32.6-14.5 32.6-32.3s-14.6-32.3-32.6-32.3-32.6 14.5-32.6 32.3 14.6 32.3 32.6 32.3zm0-49.7c9.7 0 17.6 7.7 17.6 17.3 0 9.5-7.9 17.3-17.6 17.3s-17.6-7.7-17.6-17.3c.001-9.5 7.901-17.3 17.6-17.3zM290.413 183.825c4.1 0 7.5-3.4 7.5-7.5v-4.3l23.2 11c1 .5 2.1.7 3.2.7 2.8 0 5.5-1.6 6.7-4 1.8-3.7.2-8.2-3.5-10l-20.2-9.6 20.4-10.5c2.5-1.3 4.1-3.9 4.1-6.7v-16.2c0-4.1-3.4-7.5-7.5-7.5h-33.9c-4.1 0-7.5 3.4-7.5 7.5v49.6c0 4.1 3.399 7.5 7.5 7.5zm7.5-49.8h18.9v4.1l-18.9 9.7v-13.8zM324.313 183.725h-.001zM180.613 183.325c4.3 0 8.6-.9 12.6-3.1 3.7-1.8 5.2-6.3 3.4-10s-6.3-5.2-10-3.4c-6.3 3.1-13.8 1-18.2-5.1-.1-.2-.3-.3-.4-.5-5.1-5.9-5.1-14.1 0-20 .1-.1.3-.3.4-.5 4.3-6.1 12.1-8.6 18.9-6.1 3.8 1.5 8.2-.5 9.6-4.4 1.5-3.8-.5-8.2-4.4-9.6-12.9-4.8-27.7-.2-36.1 11.1-9.7 11.4-9.7 27.7 0 39.1 5.9 8.1 15 12.5 24.2 12.5zM383.413 134.125c4.1 0 7.5-3.4 7.5-7.5s-3.4-7.5-7.5-7.5h-33.9c-4.1 0-7.5 3.4-7.5 7.5v49.7c0 4.1 3.4 7.5 7.5 7.5h33.9c4.1 0 7.5-3.4 7.5-7.5s-3.4-7.6-7.5-7.6h-26.4v-9.8h8.8c4.1 0 7.5-3.4 7.5-7.5s-3.4-7.5-7.5-7.5h-8.8v-9.8h26.4zM90.813 176.225c0 4.1 3.4 7.5 7.5 7.5h33.9c2.8 0 5.3-1.6 6.6-4 1.3-2.4 1.2-5.4-.4-7.7l-25.9-38h19.7c4.1 0 7.5-3.4 7.5-7.5s-3.4-7.5-7.5-7.5h-33.9c-2.7 0-5.3 1.5-6.6 4-1.3 2.4-1.2 5.4.4 7.7l25.9 38h-19.7c-4.101 0-7.5 3.4-7.5 7.5zM90.813 432.125h300.1v-213.8h-300.1v213.8zm249.899-198.7h35.2v50.8h-35.2v-50.8zm-.099 65.8h35.2v52.1h-35.2v-52.1zm0 67.1h35.2v50.8h-35.2v-50.8zm-50.2-133h35.2v50.8h-35.2v-50.8zm0 65.9h35.2v52.1h-35.2v-52.1zm0 67.1h35.2v50.8h-35.2v-50.8zm-134.4-132.9h119.4v50.8h-119.4v-50.8zm0 65.8h119.4v52.1h-119.4v-52.1zm0 67.1h119.4v50.8h-119.4v-50.8zm-50.2-133h35.2v50.8h-35.2v-50.8zm0 65.9h35.2v52.1h-35.2v-52.1zm0 67.1h35.2v50.8h-35.2v-50.8z" fill="#000000" data-original="#000000" class=""></path><path d="M323.712 53.125v-17.4h-35.1c-3.4-12.4-11.6-22.8-23.3-29.2-14.9-8.7-34-8.7-48.8 0-11.7 6.4-19.9 16.8-23.3 29.2h-35.1v17.4h-108.7l1.3 428.7h381.7v-428.7h-108.7zm-100.099-33.4.3-.2c10.3-6.1 23.5-6.1 33.8 0l.3.2c6.8 3.7 11.9 9.3 14.7 16h-63.8c2.899-6.7 8-12.4 14.7-16zm-50.601 31h135.7v18.5h-135.7v-18.5zm-107.5 416.1-1.2-398.7h93.6v16.2h165.7v-16.2h93.6v398.7h-351.7z" fill="#000000" data-original="#000000" class=""></path></g></svg>