<svg xmlns="http://www.w3.org/2000/svg" version="1.1" xmlns:xlink="http://www.w3.org/1999/xlink" xmlns:svgjs="http://svgjs.com/svgjs" width="45" height="45" x="0" y="0" viewBox="0 0 24 24" style="enable-background:new 0 0 512 512" xml:space="preserve" class=""><g><path d="M17.25 24H2.75A2.752 2.752 0 0 1 0 21.25V9.75A2.752 2.752 0 0 1 2.75 7h14.5A2.752 2.752 0 0 1 20 9.75v11.5A2.752 2.752 0 0 1 17.25 24zM2.75 8.5c-.689 0-1.25.561-1.25 1.25v11.5c0 .689.561 1.25 1.25 1.25h14.5c.689 0 1.25-.561 1.25-1.25V9.75c0-.689-.561-1.25-1.25-1.25z" fill="#000000" data-original="#000000"></path><path d="M19.25 12H.75a.75.75 0 0 1 0-1.5h18.5a.75.75 0 0 1 0 1.5z" fill="#000000" data-original="#000000"></path><path d="M23.25 17a.75.75 0 0 1-.75-.75V2.75c0-.689-.561-1.25-1.25-1.25H6.75c-.689 0-1.25.561-1.25 1.25v1.5a.75.75 0 0 1-1.5 0v-1.5A2.752 2.752 0 0 1 6.75 0h14.5A2.752 2.752 0 0 1 24 2.75v13.5a.75.75 0 0 1-.75.75z" fill="#000000" data-original="#000000"></path><path d="M23.25 5H4.75a.75.75 0 0 1 0-1.5h18.5a.75.75 0 0 1 0 1.5z" fill="#000000" data-original="#000000"></path></g></svg>